<svg width="64" height="64" viewBox="0 0 64 64" fill="none" xmlns="http://www.w3.org/2000/svg">
<path fill-rule="evenodd" clip-rule="evenodd" d="M32.0002 5.33331C17.2668 5.33331 5.3335 17.2666 5.3335 32C5.3335 43.8 12.9668 53.7666 23.5668 57.3C24.9002 57.5333 25.4002 56.7333 25.4002 56.0333C25.4002 55.4 25.3668 53.3 25.3668 51.0666C18.6668 52.3 16.9335 49.4333 16.4002 47.9333C16.1002 47.1666 14.8002 44.8 13.6668 44.1666C12.7335 43.6666 11.4002 42.4333 13.6335 42.4C15.7335 42.3666 17.2335 44.3333 17.7335 45.1333C20.1335 49.1666 23.9668 48.0333 25.5002 47.3333C25.7335 45.6 26.4335 44.4333 27.2002 43.7666C21.2668 43.1 15.0668 40.8 15.0668 30.6C15.0668 27.7 16.1002 25.3 17.8002 23.4333C17.5335 22.7666 16.6002 20.0333 18.0668 16.3666C18.0668 16.3666 20.3002 15.6666 25.4002 19.1C27.5335 18.5 29.8002 18.2 32.0668 18.2C34.3335 18.2 36.6002 18.5 38.7335 19.1C43.8335 15.6333 46.0668 16.3666 46.0668 16.3666C47.5335 20.0333 46.6002 22.7666 46.3335 23.4333C48.0335 25.3 49.0668 27.6666 49.0668 30.6C49.0668 40.8333 42.8335 43.1 36.9002 43.7666C37.8668 44.6 38.7002 46.2 38.7002 48.7C38.7002 52.2666 38.6668 55.1333 38.6668 56.0333C38.6668 56.7333 39.1668 57.5666 40.5002 57.3C45.794 55.5128 50.3941 52.1106 53.653 47.5721C56.9118 43.0335 58.6654 37.5873 58.6668 32C58.6668 17.2666 46.7335 5.33331 32.0002 5.33331Z" fill="white"/>
</svg>
