<svg width="64" height="64" viewBox="0 0 64 64" fill="none" xmlns="http://www.w3.org/2000/svg">
<path fill-rule="evenodd" clip-rule="evenodd" d="M32.0002 58.6666C46.7278 58.6666 58.6668 46.7276 58.6668 32C58.6668 17.2724 46.7278 5.33331 32.0002 5.33331C17.2726 5.33331 5.3335 17.2724 5.3335 32C5.3335 46.7276 17.2726 58.6666 32.0002 58.6666ZM44.4685 18.6666L34.5401 29.9593L45.3335 45.3333H37.3924L30.1215 34.9783L21.0192 45.3333H18.6668L29.0783 33.4922L18.6668 18.6666H26.6079L33.4914 28.4699L42.1161 18.6666H44.4685ZM30.2606 32.1451L31.3172 33.6224L38.5012 43.6826H42.115L33.3088 31.3598L32.2568 29.8826L25.4813 20.4019H21.8675L30.2606 32.1451Z" fill="white"/>
</svg>
