<svg width="390" height="366" viewBox="0 0 390 366" fill="none" xmlns="http://www.w3.org/2000/svg">
<path d="M154.203 142.472C156.758 137.174 152.946 131 147.121 131H70.1663C67.1531 131 64.4036 132.739 63.0829 135.479L20.8073 223.199C18.2543 228.496 22.0664 234.668 27.8907 234.668H104.85C107.863 234.668 110.612 232.931 111.933 230.191L129.222 194.341C129.861 193.017 128.908 191.473 127.452 191.473H100.046C97.034 191.473 94.2851 193.211 92.9639 195.95L87.87 206.513C87.2094 207.882 85.835 208.751 84.3288 208.751H66.3121C64.8558 208.751 63.9028 207.208 64.5415 205.883L87.0768 159.156C87.7374 157.786 89.1119 156.917 90.6181 156.917H108.635C110.091 156.917 111.044 158.461 110.405 159.785L104.839 171.327C104.2 172.652 105.153 174.195 106.61 174.195H133.981C136.993 174.195 139.742 172.457 141.063 169.718L154.203 142.472Z" fill="url(#paint0_linear_133_402)"/>
<path d="M124.741 234.668C123.285 234.668 122.332 233.125 122.97 231.801L170.471 133.24C171.131 131.869 172.506 131 174.012 131H203.845C205.301 131 206.254 132.543 205.616 133.867L158.115 232.429C157.455 233.799 156.08 234.668 154.574 234.668H124.741Z" fill="url(#paint1_linear_133_402)"/>
<path d="M231.464 188.967C229.975 190.566 227.899 191.473 225.727 191.473H193.682L208.125 175.959C209.214 174.79 210.121 173.461 210.817 172.018L229.519 133.239C230.18 131.869 231.554 131 233.061 131H262.893C264.35 131 265.303 132.544 264.664 133.868L246.266 172.018C245.569 173.461 244.662 174.79 243.573 175.959L231.464 188.967Z" fill="url(#paint2_linear_133_402)"/>
<path d="M230.865 234.668C232.319 234.668 233.272 233.128 232.637 231.804L213.282 191.473H177.834L197.251 232.407C197.907 233.789 199.288 234.668 200.804 234.668H230.865Z" fill="url(#paint3_linear_133_402)"/>
<path fill-rule="evenodd" clip-rule="evenodd" d="M242.48 228.934C241.204 231.582 243.11 234.668 246.022 234.668H283.393H316.767C322.19 234.668 327.373 232.407 331.095 228.417L341.735 217.011C346.494 211.909 348.253 204.653 346.366 197.902L339.743 174.195L367.936 143.928C369.262 142.505 370 140.623 370 138.668C370 134.433 366.607 131 362.422 131H333.355H294.603C291.59 131 288.84 132.739 287.52 135.479L242.48 228.934ZM333.355 131L277.007 191.473H304.191L283.393 234.668L339.741 174.195H312.524L333.355 131Z" fill="url(#paint4_linear_133_402)"/>
<path d="M-34 108H370.748C379.586 108 385.392 117.23 381.565 125.196L317.767 258" stroke="url(#paint5_linear_133_402)" stroke-width="3" stroke-linecap="round"/>
<path d="M425 258L19.31 258C10.4675 258 4.66193 248.761 8.49794 240.794L72.4359 108" stroke="url(#paint6_linear_133_402)" stroke-width="3" stroke-linecap="round"/>
<defs>
<linearGradient id="paint0_linear_133_402" x1="195" y1="131" x2="195" y2="234.668" gradientUnits="userSpaceOnUse">
<stop stop-color="#232323" stop-opacity="0"/>
<stop offset="0.5" stop-color="#484D4E" stop-opacity="0.5"/>
<stop offset="1" stop-color="#232323" stop-opacity="0"/>
</linearGradient>
<linearGradient id="paint1_linear_133_402" x1="195" y1="131" x2="195" y2="234.668" gradientUnits="userSpaceOnUse">
<stop stop-color="#232323" stop-opacity="0"/>
<stop offset="0.5" stop-color="#484D4E" stop-opacity="0.5"/>
<stop offset="1" stop-color="#232323" stop-opacity="0"/>
</linearGradient>
<linearGradient id="paint2_linear_133_402" x1="195" y1="131" x2="195" y2="234.668" gradientUnits="userSpaceOnUse">
<stop stop-color="#232323" stop-opacity="0"/>
<stop offset="0.5" stop-color="#484D4E" stop-opacity="0.5"/>
<stop offset="1" stop-color="#232323" stop-opacity="0"/>
</linearGradient>
<linearGradient id="paint3_linear_133_402" x1="195" y1="131" x2="195" y2="234.668" gradientUnits="userSpaceOnUse">
<stop stop-color="#232323" stop-opacity="0"/>
<stop offset="0.5" stop-color="#484D4E" stop-opacity="0.5"/>
<stop offset="1" stop-color="#232323" stop-opacity="0"/>
</linearGradient>
<linearGradient id="paint4_linear_133_402" x1="195" y1="131" x2="195" y2="234.668" gradientUnits="userSpaceOnUse">
<stop stop-color="#232323" stop-opacity="0"/>
<stop offset="0.5" stop-color="#484D4E" stop-opacity="0.5"/>
<stop offset="1" stop-color="#232323" stop-opacity="0"/>
</linearGradient>
<linearGradient id="paint5_linear_133_402" x1="177.913" y1="108" x2="177.913" y2="258" gradientUnits="userSpaceOnUse">
<stop stop-color="#00CC9B"/>
<stop offset="1" stop-color="#00CC9B" stop-opacity="0"/>
</linearGradient>
<linearGradient id="paint6_linear_133_402" x1="212.607" y1="258" x2="212.607" y2="108" gradientUnits="userSpaceOnUse">
<stop stop-color="#FF9900"/>
<stop offset="1" stop-color="#FF9900" stop-opacity="0"/>
</linearGradient>
</defs>
</svg>
