<svg width="120" height="120" viewBox="0 0 120 120" fill="none" xmlns="http://www.w3.org/2000/svg">
<path d="M44.3179 110L59.9481 77.2936C60.8997 75.3024 59.4482 73 57.2413 73H10" stroke="url(#paint0_linear_133_514)" stroke-width="3" stroke-linecap="round"/>
<path d="M75.6821 10L60.0519 42.7064C59.1003 44.6976 60.5518 47 62.7587 47L110 47" stroke="url(#paint1_linear_133_514)" stroke-width="3" stroke-linecap="round"/>
<circle cx="36.1579" cy="28.1579" r="15.1579" fill="url(#paint2_linear_133_514)"/>
<circle cx="83.5789" cy="35.5789" r="7.57895" fill="url(#paint3_linear_133_514)"/>
<circle cx="70.5" cy="57.5" r="2.5" fill="url(#paint4_linear_133_514)"/>
<circle cx="52.5" cy="65.5" r="2.5" fill="url(#paint5_linear_133_514)"/>
<circle cx="39.5" cy="50.5" r="2.5" fill="url(#paint6_linear_133_514)"/>
<circle cx="15.5" cy="65.5" r="2.5" fill="url(#paint7_linear_133_514)"/>
<circle cx="95.5" cy="67.5" r="2.5" fill="url(#paint8_linear_133_514)"/>
<circle cx="84.5" cy="63.5" r="2.5" fill="url(#paint9_linear_133_514)"/>
<circle cx="84.1579" cy="92.1579" r="15.1579" fill="url(#paint10_linear_133_514)"/>
<circle cx="35.5789" cy="84.5789" r="7.57895" fill="url(#paint11_linear_133_514)"/>
<circle cx="58.5" cy="55.5" r="2.5" fill="url(#paint12_linear_133_514)"/>
<circle cx="30.5" cy="61.5" r="2.5" fill="url(#paint13_linear_133_514)"/>
<circle cx="22.5" cy="54.5" r="2.5" fill="url(#paint14_linear_133_514)"/>
<circle cx="67.5" cy="66.5" r="2.5" fill="url(#paint15_linear_133_514)"/>
<circle cx="101.5" cy="55.5" r="2.5" fill="url(#paint16_linear_133_514)"/>
<circle cx="47.5" cy="58.5" r="2.5" fill="url(#paint17_linear_133_514)"/>
<defs>
<linearGradient id="paint0_linear_133_514" x1="36" y1="73" x2="36" y2="110" gradientUnits="userSpaceOnUse">
<stop stop-color="#00CC9B"/>
<stop offset="1" stop-color="#00CC9B" stop-opacity="0"/>
</linearGradient>
<linearGradient id="paint1_linear_133_514" x1="84" y1="47" x2="84" y2="10" gradientUnits="userSpaceOnUse">
<stop stop-color="#FF9900"/>
<stop offset="1" stop-color="#FF9900" stop-opacity="0"/>
</linearGradient>
<linearGradient id="paint2_linear_133_514" x1="36.1579" y1="13" x2="36.1579" y2="43.3158" gradientUnits="userSpaceOnUse">
<stop stop-color="#00CC9B"/>
<stop offset="1" stop-color="#00CC9B" stop-opacity="0"/>
</linearGradient>
<linearGradient id="paint3_linear_133_514" x1="83.5789" y1="28" x2="83.5789" y2="43.1579" gradientUnits="userSpaceOnUse">
<stop stop-color="#00CC9B"/>
<stop offset="1" stop-color="#00CC9B" stop-opacity="0"/>
</linearGradient>
<linearGradient id="paint4_linear_133_514" x1="70.5" y1="55" x2="70.5" y2="60" gradientUnits="userSpaceOnUse">
<stop stop-color="#00CC9B"/>
<stop offset="1" stop-color="#00CC9B" stop-opacity="0"/>
</linearGradient>
<linearGradient id="paint5_linear_133_514" x1="52.5" y1="63" x2="52.5" y2="68" gradientUnits="userSpaceOnUse">
<stop stop-color="#00CC9B"/>
<stop offset="1" stop-color="#00CC9B" stop-opacity="0"/>
</linearGradient>
<linearGradient id="paint6_linear_133_514" x1="39.5" y1="48" x2="39.5" y2="53" gradientUnits="userSpaceOnUse">
<stop stop-color="#00CC9B"/>
<stop offset="1" stop-color="#00CC9B" stop-opacity="0"/>
</linearGradient>
<linearGradient id="paint7_linear_133_514" x1="15.5" y1="63" x2="15.5" y2="68" gradientUnits="userSpaceOnUse">
<stop stop-color="#00CC9B"/>
<stop offset="1" stop-color="#00CC9B" stop-opacity="0"/>
</linearGradient>
<linearGradient id="paint8_linear_133_514" x1="95.5" y1="65" x2="95.5" y2="70" gradientUnits="userSpaceOnUse">
<stop stop-color="#00CC9B"/>
<stop offset="1" stop-color="#00CC9B" stop-opacity="0"/>
</linearGradient>
<linearGradient id="paint9_linear_133_514" x1="84.5" y1="61" x2="84.5" y2="66" gradientUnits="userSpaceOnUse">
<stop stop-color="#00CC9B"/>
<stop offset="1" stop-color="#00CC9B" stop-opacity="0"/>
</linearGradient>
<linearGradient id="paint10_linear_133_514" x1="84.1579" y1="77" x2="84.1579" y2="107.316" gradientUnits="userSpaceOnUse">
<stop stop-color="#FF9900"/>
<stop offset="1" stop-color="#FF9900" stop-opacity="0"/>
</linearGradient>
<linearGradient id="paint11_linear_133_514" x1="35.5789" y1="77" x2="35.5789" y2="92.1579" gradientUnits="userSpaceOnUse">
<stop stop-color="#FF9900"/>
<stop offset="1" stop-color="#FF9900" stop-opacity="0"/>
</linearGradient>
<linearGradient id="paint12_linear_133_514" x1="58.5" y1="53" x2="58.5" y2="58" gradientUnits="userSpaceOnUse">
<stop stop-color="#FF9900"/>
<stop offset="1" stop-color="#FF9900" stop-opacity="0"/>
</linearGradient>
<linearGradient id="paint13_linear_133_514" x1="30.5" y1="59" x2="30.5" y2="64" gradientUnits="userSpaceOnUse">
<stop stop-color="#FF9900"/>
<stop offset="1" stop-color="#FF9900" stop-opacity="0"/>
</linearGradient>
<linearGradient id="paint14_linear_133_514" x1="22.5" y1="52" x2="22.5" y2="57" gradientUnits="userSpaceOnUse">
<stop stop-color="#FF9900"/>
<stop offset="1" stop-color="#FF9900" stop-opacity="0"/>
</linearGradient>
<linearGradient id="paint15_linear_133_514" x1="67.5" y1="64" x2="67.5" y2="69" gradientUnits="userSpaceOnUse">
<stop stop-color="#FF9900"/>
<stop offset="1" stop-color="#FF9900" stop-opacity="0"/>
</linearGradient>
<linearGradient id="paint16_linear_133_514" x1="101.5" y1="53" x2="101.5" y2="58" gradientUnits="userSpaceOnUse">
<stop stop-color="#FF9900"/>
<stop offset="1" stop-color="#FF9900" stop-opacity="0"/>
</linearGradient>
<linearGradient id="paint17_linear_133_514" x1="47.5" y1="56" x2="47.5" y2="61" gradientUnits="userSpaceOnUse">
<stop stop-color="#FF9900"/>
<stop offset="1" stop-color="#FF9900" stop-opacity="0"/>
</linearGradient>
</defs>
</svg>
