<svg width="120" height="120" viewBox="0 0 120 120" fill="none" xmlns="http://www.w3.org/2000/svg">
<circle cx="105.833" cy="59.9167" r="9.16667" fill="url(#paint0_linear_133_534)"/>
<circle cx="37.875" cy="20.875" r="6.875" fill="url(#paint1_linear_133_534)"/>
<circle cx="93" cy="83.75" r="4.58333" fill="url(#paint2_linear_133_534)"/>
<circle cx="25.5833" cy="38.5833" r="4.58333" fill="url(#paint3_linear_133_534)"/>
<circle cx="26.0833" cy="81.9167" r="4.58333" fill="url(#paint4_linear_133_534)"/>
<circle cx="47.5" cy="51.5" r="2.5" fill="url(#paint5_linear_133_534)"/>
<circle cx="56.5" cy="84.5" r="2.5" fill="url(#paint6_linear_133_534)"/>
<circle cx="74.5" cy="63.5" r="2.5" fill="url(#paint7_linear_133_534)"/>
<circle cx="81.5833" cy="99.5833" r="4.58333" fill="url(#paint8_linear_133_534)"/>
<circle cx="14.1667" cy="59.9167" r="9.16667" fill="url(#paint9_linear_133_534)"/>
<circle cx="37.5417" cy="98.875" r="6.875" fill="url(#paint10_linear_133_534)"/>
<circle cx="60.4583" cy="19.125" r="6.875" fill="url(#paint11_linear_133_534)"/>
<circle cx="82.5833" cy="20.5833" r="4.58333" fill="url(#paint12_linear_133_534)"/>
<circle cx="60" cy="99.3333" r="4.58333" fill="url(#paint13_linear_133_534)"/>
<circle cx="93" cy="39.75" r="4.58333" fill="url(#paint14_linear_133_534)"/>
<circle cx="49.5" cy="34.5" r="2.5" fill="url(#paint15_linear_133_534)"/>
<circle cx="43.5" cy="68.5" r="2.5" fill="url(#paint16_linear_133_534)"/>
<circle cx="72.5" cy="37.5" r="2.5" fill="url(#paint17_linear_133_534)"/>
<circle cx="30.5" cy="55.5" r="2.5" fill="url(#paint18_linear_133_534)"/>
<path d="M37 100L82 20" stroke="url(#paint19_linear_133_534)" stroke-width="2" stroke-linecap="round"/>
<path d="M37 100L37 20" stroke="url(#paint20_linear_133_534)" stroke-width="2" stroke-linecap="round"/>
<path d="M93 84L37 20" stroke="url(#paint21_linear_133_534)" stroke-width="2" stroke-linecap="round"/>
<path d="M93 84L15 60" stroke="url(#paint22_linear_133_534)" stroke-width="2" stroke-linecap="round"/>
<path d="M93 40L15 60" stroke="url(#paint23_linear_133_534)" stroke-width="2" stroke-linecap="round"/>
<path d="M82 100L15 60" stroke="url(#paint24_linear_133_534)" stroke-width="2" stroke-linecap="round"/>
<path d="M106 60L60 100" stroke="url(#paint25_linear_133_534)" stroke-width="2" stroke-linecap="round"/>
<path d="M105.134 58.5C105.67 59.4282 105.67 60.5718 105.134 61.5L83.866 98.3372C83.3301 99.2654 82.3397 99.8372 81.2679 99.8372L38.7321 99.8372C37.6603 99.8372 36.6699 99.2654 36.134 98.3372L14.866 61.5C14.3301 60.5718 14.3301 59.4282 14.866 58.5L36.134 21.6628C36.6699 20.7346 37.6603 20.1628 38.7321 20.1628L81.2679 20.1628C82.3397 20.1628 83.3301 20.7346 83.866 21.6628L105.134 58.5Z" stroke="url(#paint26_linear_133_534)" stroke-width="3"/>
<defs>
<linearGradient id="paint0_linear_133_534" x1="105.833" y1="50.75" x2="105.833" y2="69.0833" gradientUnits="userSpaceOnUse">
<stop stop-color="#00CC9B"/>
<stop offset="1" stop-color="#00CC9B" stop-opacity="0"/>
</linearGradient>
<linearGradient id="paint1_linear_133_534" x1="37.875" y1="14" x2="37.875" y2="27.75" gradientUnits="userSpaceOnUse">
<stop stop-color="#00CC9B"/>
<stop offset="1" stop-color="#00CC9B" stop-opacity="0"/>
</linearGradient>
<linearGradient id="paint2_linear_133_534" x1="93" y1="79.1666" x2="93" y2="88.3333" gradientUnits="userSpaceOnUse">
<stop stop-color="#00CC9B"/>
<stop offset="1" stop-color="#00CC9B" stop-opacity="0"/>
</linearGradient>
<linearGradient id="paint3_linear_133_534" x1="25.5833" y1="34" x2="25.5833" y2="43.1667" gradientUnits="userSpaceOnUse">
<stop stop-color="#00CC9B"/>
<stop offset="1" stop-color="#00CC9B" stop-opacity="0"/>
</linearGradient>
<linearGradient id="paint4_linear_133_534" x1="26.0833" y1="77.3334" x2="26.0833" y2="86.5" gradientUnits="userSpaceOnUse">
<stop stop-color="#00CC9B"/>
<stop offset="1" stop-color="#00CC9B" stop-opacity="0"/>
</linearGradient>
<linearGradient id="paint5_linear_133_534" x1="47.5" y1="49" x2="47.5" y2="54" gradientUnits="userSpaceOnUse">
<stop stop-color="#00CC9B"/>
<stop offset="1" stop-color="#00CC9B" stop-opacity="0"/>
</linearGradient>
<linearGradient id="paint6_linear_133_534" x1="56.5" y1="82" x2="56.5" y2="87" gradientUnits="userSpaceOnUse">
<stop stop-color="#00CC9B"/>
<stop offset="1" stop-color="#00CC9B" stop-opacity="0"/>
</linearGradient>
<linearGradient id="paint7_linear_133_534" x1="74.5" y1="61" x2="74.5" y2="66" gradientUnits="userSpaceOnUse">
<stop stop-color="#00CC9B"/>
<stop offset="1" stop-color="#00CC9B" stop-opacity="0"/>
</linearGradient>
<linearGradient id="paint8_linear_133_534" x1="81.5833" y1="95" x2="81.5833" y2="104.167" gradientUnits="userSpaceOnUse">
<stop stop-color="#00CC9B"/>
<stop offset="1" stop-color="#00CC9B" stop-opacity="0"/>
</linearGradient>
<linearGradient id="paint9_linear_133_534" x1="14.1667" y1="50.75" x2="14.1667" y2="69.0833" gradientUnits="userSpaceOnUse">
<stop stop-color="#FF9900"/>
<stop offset="1" stop-color="#FF9900" stop-opacity="0"/>
</linearGradient>
<linearGradient id="paint10_linear_133_534" x1="37.5417" y1="92" x2="37.5417" y2="105.75" gradientUnits="userSpaceOnUse">
<stop stop-color="#FF9900"/>
<stop offset="1" stop-color="#FF9900" stop-opacity="0"/>
</linearGradient>
<linearGradient id="paint11_linear_133_534" x1="60.4583" y1="12.25" x2="60.4583" y2="26" gradientUnits="userSpaceOnUse">
<stop stop-color="#FF9900"/>
<stop offset="1" stop-color="#FF9900" stop-opacity="0"/>
</linearGradient>
<linearGradient id="paint12_linear_133_534" x1="82.5833" y1="16" x2="82.5833" y2="25.1667" gradientUnits="userSpaceOnUse">
<stop stop-color="#FF9900"/>
<stop offset="1" stop-color="#FF9900" stop-opacity="0"/>
</linearGradient>
<linearGradient id="paint13_linear_133_534" x1="60" y1="94.75" x2="60" y2="103.917" gradientUnits="userSpaceOnUse">
<stop stop-color="#FF9900"/>
<stop offset="1" stop-color="#FF9900" stop-opacity="0"/>
</linearGradient>
<linearGradient id="paint14_linear_133_534" x1="93" y1="35.1666" x2="93" y2="44.3333" gradientUnits="userSpaceOnUse">
<stop stop-color="#FF9900"/>
<stop offset="1" stop-color="#FF9900" stop-opacity="0"/>
</linearGradient>
<linearGradient id="paint15_linear_133_534" x1="49.5" y1="32" x2="49.5" y2="37" gradientUnits="userSpaceOnUse">
<stop stop-color="#FF9900"/>
<stop offset="1" stop-color="#FF9900" stop-opacity="0"/>
</linearGradient>
<linearGradient id="paint16_linear_133_534" x1="43.5" y1="66" x2="43.5" y2="71" gradientUnits="userSpaceOnUse">
<stop stop-color="#FF9900"/>
<stop offset="1" stop-color="#FF9900" stop-opacity="0"/>
</linearGradient>
<linearGradient id="paint17_linear_133_534" x1="72.5" y1="35" x2="72.5" y2="40" gradientUnits="userSpaceOnUse">
<stop stop-color="#FF9900"/>
<stop offset="1" stop-color="#FF9900" stop-opacity="0"/>
</linearGradient>
<linearGradient id="paint18_linear_133_534" x1="30.5" y1="53" x2="30.5" y2="58" gradientUnits="userSpaceOnUse">
<stop stop-color="#FF9900"/>
<stop offset="1" stop-color="#FF9900" stop-opacity="0"/>
</linearGradient>
<linearGradient id="paint19_linear_133_534" x1="81.9435" y1="21.1202" x2="37.4358" y2="100.245" gradientUnits="userSpaceOnUse">
<stop stop-color="#00CC9B"/>
<stop offset="1" stop-color="#00CC9B" stop-opacity="0"/>
</linearGradient>
<linearGradient id="paint20_linear_133_534" x1="37.5" y1="20.8751" x2="37.5" y2="100" gradientUnits="userSpaceOnUse">
<stop stop-color="#00CC9B"/>
<stop offset="1" stop-color="#00CC9B" stop-opacity="0"/>
</linearGradient>
<linearGradient id="paint21_linear_133_534" x1="37.9889" y1="20.3708" x2="93.3763" y2="83.6707" gradientUnits="userSpaceOnUse">
<stop stop-color="#FF9900"/>
<stop offset="1" stop-color="#FF9900" stop-opacity="0"/>
</linearGradient>
<linearGradient id="paint22_linear_133_534" x1="16.0003" y1="59.7846" x2="93.147" y2="83.5221" gradientUnits="userSpaceOnUse">
<stop stop-color="#FF9900"/>
<stop offset="1" stop-color="#FF9900" stop-opacity="0"/>
</linearGradient>
<linearGradient id="paint23_linear_133_534" x1="15.729" y1="59.2969" x2="92.8758" y2="39.5157" gradientUnits="userSpaceOnUse">
<stop stop-color="#00CC9B"/>
<stop offset="1" stop-color="#00CC9B" stop-opacity="0"/>
</linearGradient>
<linearGradient id="paint24_linear_133_534" x1="15.9892" y1="60.0082" x2="82.2563" y2="99.5707" gradientUnits="userSpaceOnUse">
<stop stop-color="#00CC9B"/>
<stop offset="1" stop-color="#00CC9B" stop-opacity="0"/>
</linearGradient>
<linearGradient id="paint25_linear_133_534" x1="60.1751" y1="99.1851" x2="105.672" y2="59.6227" gradientUnits="userSpaceOnUse">
<stop stop-color="#FF9900"/>
<stop offset="1" stop-color="#FF9900" stop-opacity="0"/>
</linearGradient>
<linearGradient id="paint26_linear_133_534" x1="104.978" y1="14" x2="94.9122" y2="114.228" gradientUnits="userSpaceOnUse">
<stop stop-color="#00CC9B"/>
<stop offset="1" stop-color="#FF9900"/>
</linearGradient>
</defs>
</svg>
