<svg width="350" height="350" viewBox="0 0 350 350" fill="none" xmlns="http://www.w3.org/2000/svg">
<path d="M312.824 175H41.0592" stroke="#00CC9B" stroke-opacity="0.25" stroke-width="12" stroke-linecap="round"/>
<path d="M178.005 38.5763L178.005 313.576" stroke="#00CC9B" stroke-opacity="0.25" stroke-width="12" stroke-linecap="round"/>
<ellipse cx="39.1176" cy="173.036" rx="29.4643" ry="29.1176" transform="rotate(-90 39.1176 173.036)" fill="url(#paint0_linear_23_559)"/>
<ellipse cx="310.882" cy="173.036" rx="29.4643" ry="29.1176" transform="rotate(90 310.882 173.036)" fill="url(#paint1_linear_23_559)"/>
<ellipse cx="178.883" cy="39.4643" rx="29.1176" ry="29.4643" fill="url(#paint2_linear_23_559)"/>
<ellipse cx="175" cy="310.536" rx="29.1176" ry="29.4643" transform="rotate(-180 175 310.536)" fill="url(#paint3_linear_23_559)"/>
<path d="M273.517 271.53L81.35 77.0756" stroke="#FF9900" stroke-opacity="0.25" stroke-width="12" stroke-linecap="round"/>
<path d="M273.517 78.5974L81.35 273.052" stroke="#FF9900" stroke-opacity="0.25" stroke-width="12" stroke-linecap="round"/>
<circle cx="29.2915" cy="29.2915" r="29.2915" transform="matrix(0.70291 -0.711278 0.70291 0.711278 40.1721 74.2973)" fill="url(#paint4_linear_23_559)"/>
<circle cx="29.2915" cy="29.2915" r="29.2915" transform="matrix(-0.70291 0.711278 -0.70291 -0.711278 314.695 268.752)" fill="url(#paint5_linear_23_559)"/>
<circle cx="29.2915" cy="29.2915" r="29.2915" transform="matrix(0.70291 0.711278 -0.70291 0.711278 273.517 38.1843)" fill="url(#paint6_linear_23_559)"/>
<circle cx="29.2915" cy="29.2915" r="29.2915" transform="matrix(-0.70291 -0.711278 0.70291 -0.711278 81.35 310.421)" fill="url(#paint7_linear_23_559)"/>
<defs>
<linearGradient id="paint0_linear_23_559" x1="39.1176" y1="143.918" x2="39.1176" y2="202.153" gradientUnits="userSpaceOnUse">
<stop stop-color="#FF9900"/>
<stop offset="1" stop-color="#FF9900" stop-opacity="0"/>
</linearGradient>
<linearGradient id="paint1_linear_23_559" x1="310.882" y1="143.918" x2="310.882" y2="202.153" gradientUnits="userSpaceOnUse">
<stop stop-color="#FF9900"/>
<stop offset="1" stop-color="#FF9900" stop-opacity="0"/>
</linearGradient>
<linearGradient id="paint2_linear_23_559" x1="178.883" y1="10" x2="178.883" y2="68.9286" gradientUnits="userSpaceOnUse">
<stop stop-color="#FF9900"/>
<stop offset="1" stop-color="#FF9900" stop-opacity="0"/>
</linearGradient>
<linearGradient id="paint3_linear_23_559" x1="175" y1="281.071" x2="175" y2="340" gradientUnits="userSpaceOnUse">
<stop stop-color="#FF9900"/>
<stop offset="1" stop-color="#FF9900" stop-opacity="0"/>
</linearGradient>
<linearGradient id="paint4_linear_23_559" x1="29.2915" y1="0" x2="29.2915" y2="58.583" gradientUnits="userSpaceOnUse">
<stop stop-color="#00CC9B"/>
<stop offset="1" stop-color="#00CC9B" stop-opacity="0"/>
</linearGradient>
<linearGradient id="paint5_linear_23_559" x1="29.2915" y1="0" x2="29.2915" y2="58.583" gradientUnits="userSpaceOnUse">
<stop stop-color="#00CC9B"/>
<stop offset="1" stop-color="#00CC9B" stop-opacity="0"/>
</linearGradient>
<linearGradient id="paint6_linear_23_559" x1="29.2915" y1="0" x2="29.2915" y2="58.583" gradientUnits="userSpaceOnUse">
<stop stop-color="#00CC9B"/>
<stop offset="1" stop-color="#00CC9B" stop-opacity="0"/>
</linearGradient>
<linearGradient id="paint7_linear_23_559" x1="29.2915" y1="0" x2="29.2915" y2="58.583" gradientUnits="userSpaceOnUse">
<stop stop-color="#00CC9B"/>
<stop offset="1" stop-color="#00CC9B" stop-opacity="0"/>
</linearGradient>
</defs>
</svg>
