<svg width="32" height="32" viewBox="0 0 32 32" fill="none" xmlns="http://www.w3.org/2000/svg">
<path d="M13.5864 17.208C14.1046 17.9016 14.7659 18.4755 15.5252 18.8907C16.2845 19.306 17.1242 19.5529 17.9872 19.6148C18.8502 19.6767 19.7165 19.552 20.5272 19.2493C21.3379 18.9466 22.074 18.4729 22.6857 17.8604L26.3062 14.2363C27.4053 13.0971 28.0135 11.5713 27.9998 9.98765C27.986 8.40394 27.3514 6.889 26.2327 5.76911C25.1139 4.64922 23.6005 4.01399 22.0184 4.00023C20.4363 3.98647 18.912 4.59528 17.774 5.69554L15.6983 7.76126M18.4136 14.792C17.8954 14.0984 17.2341 13.5245 16.4748 13.1093C15.7155 12.694 14.8758 12.4471 14.0128 12.3852C13.1498 12.3233 12.2835 12.448 11.4728 12.7507C10.6621 13.0534 9.92598 13.5271 9.31426 14.1396L5.69383 17.7637C4.59468 18.9029 3.98648 20.4287 4.00023 22.0124C4.01398 23.5961 4.64857 25.111 5.76733 26.2309C6.8861 27.3508 8.39951 27.986 9.98162 27.9998C11.5637 28.0135 13.088 27.4047 14.226 26.3045L16.2896 24.2387" stroke="white" stroke-width="3" stroke-linecap="round" stroke-linejoin="round"/>
</svg>
