<svg width="32" height="32" viewBox="0 0 32 32" fill="none" xmlns="http://www.w3.org/2000/svg">
<path d="M29.3332 16C29.3332 23.3638 23.3636 29.3333 15.9998 29.3333M29.3332 16C29.3332 8.6362 23.3636 2.66666 15.9998 2.66666M29.3332 16H2.6665M15.9998 29.3333C8.63604 29.3333 2.6665 23.3638 2.6665 16M15.9998 29.3333C19.3349 25.6822 21.2302 20.944 21.3332 16C21.2302 11.056 19.3349 6.3178 15.9998 2.66666M15.9998 29.3333C12.6648 25.6822 10.7695 20.944 10.6665 16C10.7695 11.056 12.6648 6.3178 15.9998 2.66666M2.6665 16C2.6665 8.6362 8.63604 2.66666 15.9998 2.66666" stroke="#030303" stroke-width="3" stroke-linecap="round" stroke-linejoin="round"/>
</svg>
