<svg width="32" height="32" viewBox="0 0 32 32" fill="none" xmlns="http://www.w3.org/2000/svg">
<path d="M8.85714 5.5H23.1429C26.1015 5.5 28.5 7.89847 28.5 10.8571V24.5C28.5 25.6046 27.6046 26.5 26.5 26.5H23.0763C22.886 26.5 22.7122 26.392 22.6279 26.2214L21.7286 24.4003C21.1389 23.206 19.9224 22.45 18.5904 22.45H16H13.4096C12.0776 22.45 10.8611 23.206 10.2714 24.4003L9.37206 26.2214C9.28781 26.392 9.11402 26.5 8.92375 26.5H5.5C4.39543 26.5 3.5 25.6046 3.5 24.5V10.8571C3.5 7.89848 5.89847 5.5 8.85714 5.5Z" stroke="#030303" stroke-width="3"/>
<path d="M12 14C12 15.1046 11.1046 16 10 16C8.89543 16 8 15.1046 8 14C8 12.8954 8.89543 12 10 12C11.1046 12 12 12.8954 12 14Z" stroke="#030303" stroke-width="2"/>
<path d="M21.7509 16.0011C21.7509 16.5534 22.1986 17.0011 22.7509 17.0011C23.3032 17.0011 23.7509 16.5534 23.7509 16.0011V14.7506H25.0011C25.5534 14.7506 26.0011 14.3028 26.0011 13.7506C26.0011 13.1983 25.5534 12.7506 25.0011 12.7506H23.7509V11.5C23.7509 10.9477 23.3032 10.5 22.7509 10.5C22.1986 10.5 21.7509 10.9477 21.7509 11.5V12.7506H20.5C19.9477 12.7506 19.5 13.1983 19.5 13.7506C19.5 14.3028 19.9477 14.7506 20.5 14.7506H21.7509V16.0011Z" fill="#030303"/>
</svg>
