<svg width="32" height="32" viewBox="0 0 32 32" fill="none" xmlns="http://www.w3.org/2000/svg">
<path fill-rule="evenodd" clip-rule="evenodd" d="M10 17C11.6569 17 13 15.6569 13 14C13 12.3431 11.6569 11 10 11C8.34315 11 7 12.3431 7 14C7 15.6569 8.34315 17 10 17ZM10 15C10.5523 15 11 14.5523 11 14C11 13.4477 10.5523 13 10 13C9.44772 13 9 13.4477 9 14C9 14.5523 9.44772 15 10 15Z" fill="white"/>
<path d="M22.7509 17.0011C22.1986 17.0011 21.7509 16.5534 21.7509 16.0011V14.7506H20.5C19.9477 14.7506 19.5 14.3028 19.5 13.7506C19.5 13.1983 19.9477 12.7506 20.5 12.7506H21.7509V11.5C21.7509 10.9477 22.1986 10.5 22.7509 10.5C23.3032 10.5 23.7509 10.9477 23.7509 11.5V12.7506H25.0011C25.5534 12.7506 26.0011 13.1983 26.0011 13.7506C26.0011 14.3028 25.5534 14.7506 25.0011 14.7506H23.7509V16.0011C23.7509 16.5534 23.3032 17.0011 22.7509 17.0011Z" fill="white"/>
<path fill-rule="evenodd" clip-rule="evenodd" d="M8.85714 4H23.1429C26.93 4 30 7.07005 30 10.8571V24.5C30 26.433 28.433 28 26.5 28H23.0763C22.3151 28 21.62 27.568 21.283 26.8856L20.3837 25.0644C20.0467 24.382 19.3515 23.95 18.5904 23.95H13.4096C12.6485 23.95 11.9533 24.382 11.6163 25.0644L10.717 26.8856C10.38 27.568 9.68486 28 8.92375 28H5.5C3.567 28 2 26.433 2 24.5V10.8571C2 7.07005 5.07005 4 8.85714 4ZM23.1429 7H8.85714C6.7269 7 5 8.7269 5 10.8571V24.5C5 24.7761 5.22386 25 5.5 25H8.30229L8.92644 23.7361C9.76895 22.03 11.5068 20.95 13.4096 20.95H18.5904C20.4932 20.95 22.231 22.03 23.0736 23.7361L23.6977 25H26.5C26.7761 25 27 24.7761 27 24.5V10.8571C27 8.7269 25.2731 7 23.1429 7Z" fill="white"/>
</svg>
