<svg width="32" height="32" viewBox="0 0 32 32" fill="none" xmlns="http://www.w3.org/2000/svg">
<path d="M22.7533 13.75H21.3358C20.9149 12.1199 20.0452 10.6405 18.8255 9.47994C17.6058 8.3194 16.0851 7.52424 14.4361 7.18481C12.7871 6.84538 11.0759 6.9753 9.49703 7.55979C7.91816 8.14429 6.53489 9.15993 5.50441 10.4913C4.47392 11.8227 3.83754 13.4164 3.66757 15.0914C3.4976 16.7664 3.80086 18.4555 4.5429 19.9667C5.28493 21.4779 6.43598 22.7508 7.86525 23.6405C9.29452 24.5302 10.9447 25.0013 12.6283 25H22.7533C24.2451 25 25.6759 24.4074 26.7308 23.3525C27.7857 22.2976 28.3783 20.8668 28.3783 19.375C28.3783 17.8832 27.7857 16.4524 26.7308 15.3975C25.6759 14.3426 24.2451 13.75 22.7533 13.75Z" stroke="#030303" stroke-width="4" stroke-linecap="round" stroke-linejoin="round"/>
</svg>
