<svg width="220" height="375" viewBox="0 0 220 375" fill="none" xmlns="http://www.w3.org/2000/svg">
<path d="M28.5 166.5V143C28.5 143 40 152 110.25 152C180.5 152 193.5 143 193.5 143V166.5C193.5 166.5 182.5 175.5 110.25 175.5C38 175.5 28.5 166.5 28.5 166.5Z" fill="#F3A7FF" stroke="#030303"/>
<path d="M28.5 190.5V167C28.5 167 40 176 110.25 176C180.5 176 193.5 167 193.5 167V190.5C193.5 190.5 182.5 199.5 110.25 199.5C38 199.5 28.5 190.5 28.5 190.5Z" fill="#85BAFF" stroke="#030303"/>
<path d="M193.5 142C193.5 142.488 193.117 143.099 192.033 143.796C190.976 144.477 189.386 145.151 187.289 145.804C183.104 147.108 177.023 148.288 169.478 149.282C154.395 151.269 133.543 152.5 110.5 152.5C87.4568 152.5 66.8551 151.269 52.023 149.283C44.6032 148.289 38.6477 147.108 34.5573 145.805C32.5087 145.153 30.9577 144.479 29.9289 143.8C28.8761 143.105 28.5 142.494 28.5 142C28.5 141.506 28.8761 140.895 29.9289 140.2C30.9577 139.521 32.5087 138.847 34.5573 138.195C38.6477 136.892 44.6032 135.711 52.023 134.717C66.8551 132.731 87.4568 131.5 110.5 131.5C133.543 131.5 154.395 132.731 169.478 134.718C177.023 135.712 183.104 136.892 187.289 138.196C189.386 138.849 190.976 139.523 192.033 140.204C193.117 140.901 193.5 141.512 193.5 142Z" fill="#F3A7FF" stroke="#030303"/>
<path d="M50.5 60C50.5 27.1391 77.1391 0.5 110 0.5C142.861 0.5 169.5 27.1391 169.5 60V139.5H50.5V60Z" fill="url(#paint0_linear_434_2370)" stroke="#030303"/>
<ellipse cx="110.5" cy="141" rx="69.5" ry="6" fill="#030303"/>
<rect x="98.5" y="199.5" width="23" height="71" fill="url(#paint1_linear_434_2370)" stroke="#030303"/>
<path d="M147 270.5H73V314.5H1V374.5H219V314.5H147V270.5Z" fill="#F3A7FF" stroke="#030303"/>
<path d="M132.731 347.48V353H129.227V340.52H132.731V343.544H132.827C133.259 341.72 134.435 340.424 136.427 340.424C136.715 340.424 137.027 340.448 137.387 340.544V343.496C137.003 343.448 136.715 343.424 136.403 343.424C134.531 343.424 132.731 344.456 132.731 347.48Z" fill="#030303"/>
<path d="M121.438 353.24C118.27 353.24 115.15 351.488 115.15 346.736C115.15 342.08 118.102 340.28 121.414 340.28C124.63 340.28 127.342 341.96 127.342 346.688C127.342 347.144 127.318 347.384 127.27 347.648H118.486C118.678 349.736 119.758 350.576 121.486 350.576C123.094 350.576 123.79 349.928 124.078 348.92H127.174C126.55 351.776 124.342 353.24 121.438 353.24ZM118.486 345.584H124.03C123.982 344.144 123.238 342.944 121.318 342.944C119.686 342.944 118.726 343.856 118.486 345.584Z" fill="#030303"/>
<path d="M108.254 353.239C106.406 353.239 105.038 352.279 104.582 351.199V352.999H101.078V336.199H104.582V342.319C105.038 341.239 106.406 340.279 108.254 340.279C110.87 340.279 113.726 342.175 113.726 346.759C113.726 351.343 110.87 353.239 108.254 353.239ZM104.438 346.759C104.438 349.207 105.878 350.335 107.414 350.335C108.974 350.335 110.414 349.207 110.414 346.759C110.414 344.311 108.974 343.183 107.414 343.183C105.878 343.183 104.438 344.311 104.438 346.759Z" fill="#030303"/>
<path d="M95.0782 352.999V340.519H98.5822V352.999H95.0782ZM94.9102 337.135C94.9102 336.031 95.8222 335.191 96.8302 335.191C97.8382 335.191 98.7502 336.031 98.7502 337.135C98.7502 338.215 97.8382 339.055 96.8302 339.055C95.8222 339.055 94.9102 338.215 94.9102 337.135Z" fill="#030303"/>
<path d="M82 352.999V336.199H93.112V339.319H85.6V343.255H91.816V346.159H85.6V352.999H82Z" fill="#030303"/>
<path d="M73.5 270.5H146.5V282.5H73.5V270.5Z" fill="url(#paint2_linear_434_2370)"/>
<path d="M1 374L1 315H13L13 374H1Z" fill="url(#paint3_linear_434_2370)"/>
<path d="M207 374V315H219V374H207Z" fill="url(#paint4_linear_434_2370)"/>
<path fill-rule="evenodd" clip-rule="evenodd" d="M92.6985 58.6585H135.805L144 45H94.8292L92.6985 58.6585ZM96.1951 125.585L124.878 76.4146H106.658L109.854 61.3902H92.2615L88 88.7073H104.035L96.1951 125.585Z" fill="#FEFB56"/>
<path d="M135.805 58.6585V59.1585H136.088L136.234 58.9158L135.805 58.6585ZM92.6985 58.6585L92.2044 58.5815L92.1144 59.1585H92.6985V58.6585ZM144 45L144.429 45.2572L144.883 44.5H144V45ZM94.8292 45V44.5H94.4011L94.3352 44.9229L94.8292 45ZM124.878 76.4146L125.31 76.6666L125.749 75.9146H124.878V76.4146ZM96.1951 125.585L95.7061 125.481L96.627 125.837L96.1951 125.585ZM106.658 76.4146L106.169 76.3106L106.04 76.9146H106.658V76.4146ZM109.854 61.3902L110.343 61.4943L110.471 60.8902H109.854V61.3902ZM92.2615 61.3902V60.8902H91.8334L91.7674 61.3132L92.2615 61.3902ZM88 88.7073L87.506 88.6302L87.416 89.2073H88V88.7073ZM104.035 88.7073L104.524 88.8113L104.653 88.2073H104.035V88.7073ZM135.805 58.1585H92.6985V59.1585H135.805V58.1585ZM143.571 44.7428L135.376 58.4013L136.234 58.9158L144.429 45.2572L143.571 44.7428ZM94.8292 45.5H144V44.5H94.8292V45.5ZM93.1925 58.7356L95.3232 45.0771L94.3352 44.9229L92.2044 58.5815L93.1925 58.7356ZM124.446 76.1627L95.7632 125.333L96.627 125.837L125.31 76.6666L124.446 76.1627ZM106.658 76.9146H124.878V75.9146H106.658V76.9146ZM109.365 61.2862L106.169 76.3106L107.147 76.5187L110.343 61.4943L109.365 61.2862ZM92.2615 61.8902H109.854V60.8902H92.2615V61.8902ZM88.494 88.7844L92.7555 61.4673L91.7674 61.3132L87.506 88.6302L88.494 88.7844ZM104.035 88.2073H88V89.2073H104.035V88.2073ZM96.6842 125.689L104.524 88.8113L103.546 88.6033L95.7061 125.481L96.6842 125.689Z" fill="#030303"/>
<defs>
<linearGradient id="paint0_linear_434_2370" x1="110" y1="0" x2="110" y2="140" gradientUnits="userSpaceOnUse">
<stop stop-color="#FBE7FF"/>
<stop offset="1" stop-color="#FBE7FF" stop-opacity="0"/>
</linearGradient>
<linearGradient id="paint1_linear_434_2370" x1="110" y1="199" x2="110" y2="271" gradientUnits="userSpaceOnUse">
<stop stop-color="#85BAFF"/>
<stop offset="1" stop-color="#F3A7FF"/>
</linearGradient>
<linearGradient id="paint2_linear_434_2370" x1="110" y1="271" x2="110" y2="283" gradientUnits="userSpaceOnUse">
<stop stop-color="#85BAFF"/>
<stop offset="1" stop-color="#F3A7FF"/>
</linearGradient>
<linearGradient id="paint3_linear_434_2370" x1="1.5" y1="344.5" x2="13.5" y2="344.5" gradientUnits="userSpaceOnUse">
<stop stop-color="#85BAFF"/>
<stop offset="1" stop-color="#F3A7FF"/>
</linearGradient>
<linearGradient id="paint4_linear_434_2370" x1="207.5" y1="344.5" x2="219.5" y2="344.5" gradientUnits="userSpaceOnUse">
<stop stop-color="#F3A7FF"/>
<stop offset="1" stop-color="#85BAFF"/>
</linearGradient>
</defs>
</svg>
