<svg width="32" height="32" viewBox="0 0 32 32" fill="none" xmlns="http://www.w3.org/2000/svg">
<path fill-rule="evenodd" clip-rule="evenodd" d="M16.0745 2.66666C13.5745 2.66666 11.5647 4.70908 11.5647 7.20768C11.5647 9.70627 13.5745 11.7487 16.0745 11.7487C18.5745 11.7487 20.5844 9.70627 20.5844 7.20768C20.5844 4.70908 18.5745 2.66666 16.0745 2.66666ZM13.7421 7.20768C13.7421 5.89295 14.7956 4.84407 16.0745 4.84407C17.3534 4.84407 18.4069 5.89295 18.4069 7.20768C18.4069 8.5224 17.3534 9.57129 16.0745 9.57129C14.7956 9.57129 13.7421 8.5224 13.7421 7.20768Z" fill="white"/>
<path d="M22.7283 7.86937C22.2361 7.52412 21.5571 7.6433 21.2119 8.13558C20.8666 8.62785 20.9858 9.30679 21.4781 9.65204C23.6889 11.2026 25.2151 13.6682 25.525 16.5158C25.59 17.1135 26.1273 17.5454 26.7251 17.4803C27.3228 17.4153 27.7547 16.878 27.6896 16.2802C27.3103 12.7944 25.44 9.77117 22.7283 7.86937Z" fill="white"/>
<path d="M10.5902 9.7086C11.0797 9.35936 11.1934 8.67947 10.8441 8.19002C10.4949 7.70056 9.815 7.58689 9.32555 7.93613C6.64105 9.85155 4.79692 12.8754 4.44448 16.3498C4.3838 16.948 4.81956 17.4821 5.41777 17.5428C6.01597 17.6035 6.55011 17.1677 6.61079 16.5695C6.89828 13.7354 8.40146 11.2703 10.5902 9.7086Z" fill="white"/>
<path d="M10.342 26.605C10.6165 26.0701 11.2727 25.859 11.8077 26.1336C13.0831 26.7882 14.5374 27.1559 16.0731 27.1559C17.5554 27.1559 18.9418 26.8217 20.1833 26.2119C20.723 25.9468 21.3754 26.1694 21.6405 26.7091C21.9056 27.2488 21.683 27.9012 21.1433 28.1663C19.6036 28.9225 17.8888 29.3333 16.0731 29.3333C14.1876 29.3333 12.393 28.8814 10.8134 28.0707C10.2785 27.7962 10.0674 27.1399 10.342 26.605Z" fill="white"/>
<path fill-rule="evenodd" clip-rule="evenodd" d="M2.6665 22.383C2.6665 19.8844 4.67634 17.842 7.17636 17.842C9.67638 17.842 11.6862 19.8844 11.6862 22.383C11.6862 24.8816 9.67638 26.9241 7.17636 26.9241C4.67634 26.9241 2.6665 24.8816 2.6665 22.383ZM7.17636 20.0194C5.89749 20.0194 4.84393 21.0683 4.84393 22.383C4.84393 23.6978 5.89749 24.7467 7.17636 24.7467C8.45523 24.7467 9.50879 23.6978 9.50879 22.383C9.50879 21.0683 8.45523 20.0194 7.17636 20.0194Z" fill="white"/>
<path fill-rule="evenodd" clip-rule="evenodd" d="M24.8233 17.842C22.3233 17.842 20.3135 19.8844 20.3135 22.383C20.3135 24.8816 22.3233 26.9241 24.8233 26.9241C27.3233 26.9241 29.3332 24.8816 29.3332 22.383C29.3332 19.8844 27.3233 17.842 24.8233 17.842ZM22.4909 22.383C22.4909 21.0683 23.5444 20.0194 24.8233 20.0194C26.1022 20.0194 27.1557 21.0683 27.1557 22.383C27.1557 23.6978 26.1022 24.7467 24.8233 24.7467C23.5444 24.7467 22.4909 23.6978 22.4909 22.383Z" fill="white"/>
</svg>
