<svg width="160" height="160" viewBox="0 0 160 160" fill="none" xmlns="http://www.w3.org/2000/svg">
<path d="M88.7706 16.0001C71.1269 16.0001 55.1467 23.1416 43.5351 34.7101L42.9497 35.2933H16C14.8954 35.2933 14 34.3978 14 33.2933C14 32.1887 14.8954 31.2933 16 31.2933H41.3044C53.5822 19.3533 70.3223 12.0001 88.7706 12.0001C126.46 12.0001 157 42.6763 157 80.5001C157 118.324 126.46 149 88.7706 149C70.3223 149 53.5822 141.647 41.3044 129.707H16C14.8954 129.707 14 128.811 14 127.707C14 126.602 14.8954 125.707 16 125.707H42.9497L43.5351 126.29C55.1467 137.858 71.1269 145 88.7706 145C124.236 145 153 116.13 153 80.5001C153 44.87 124.236 16.0001 88.7706 16.0001Z" fill="#030303"/>
<path d="M3 58.5482C3 57.4436 3.89543 56.5482 5 56.5482L39.7299 56.5482C40.8344 56.5482 41.7299 57.4437 41.7299 58.5482C41.7299 59.6528 40.8344 60.5482 39.7299 60.5482L5 60.5482C3.89543 60.5482 3 59.6528 3 58.5482Z" fill="#030303"/>
<path d="M5 79.2251C3.89543 79.2251 3 80.1205 3 81.2251C3 82.3297 3.89543 83.2251 5 83.2251H51.2007C52.3052 83.2251 53.2007 82.3297 53.2007 81.2251C53.2007 80.1205 52.3052 79.2251 51.2007 79.2251H5Z" fill="#030303"/>
<path d="M3 103.078C3 101.973 3.89543 101.078 5 101.078L39.7299 101.078C40.8344 101.078 41.7299 101.973 41.7299 103.078C41.7299 104.182 40.8344 105.078 39.7299 105.078L5 105.078C3.89543 105.078 3 104.182 3 103.078Z" fill="#030303"/>
<path fill-rule="evenodd" clip-rule="evenodd" d="M64.4626 48.7384L63.2051 111.965L82.2928 112.257L82.9323 80.1057L101.588 80.3914L64.4626 48.7384ZM67.2842 108.027L68.2939 57.2614L90.5324 76.2216L79.0122 76.0452L78.3728 108.197L67.2842 108.027Z" fill="#030303"/>
<path fill-rule="evenodd" clip-rule="evenodd" d="M106.062 51.6074L105.422 83.7591L86.7659 83.4734L123.892 115.126L125.149 51.8997L106.062 51.6074ZM109.982 55.6679L121.07 55.8377L120.06 106.603L97.8219 87.6432L109.342 87.8196L109.982 55.6679Z" fill="#030303"/>
</svg>
