<svg width="160" height="160" viewBox="0 0 160 160" fill="none" xmlns="http://www.w3.org/2000/svg">
<path d="M5 81.2251H51.2007M5 58.5482L39.7299 58.5483M5 103.078L39.7299 103.078" stroke="#030303" stroke-width="4" stroke-linecap="round"/>
<path d="M42.1165 33.2932L42.6882 32.7373C42.4989 32.9215 42.3106 33.1068 42.1235 33.2932H42.1165ZM42.6987 128.273L42.1165 127.707L42.1235 127.707C42.3141 127.897 42.5058 128.085 42.6987 128.273Z" fill="#030303" stroke="#030303" stroke-width="4"/>
<path d="M96.0604 78.3066L66.3783 52.9999L65.2446 109.996L80.3328 110.227L80.9723 78.0755L96.0604 78.3066Z" stroke="#030303" stroke-width="4"/>
<path d="M92.2939 85.5583L121.976 110.865L123.11 53.8687L108.022 53.6377L107.382 85.7894L92.2939 85.5583Z" stroke="#030303" stroke-width="4"/>
</svg>
