<svg width="160" height="160" viewBox="0 0 160 160" fill="none" xmlns="http://www.w3.org/2000/svg">
<path d="M20.7747 35.8824L20.0416 37.7432L20.7865 38.0366L21.5281 37.735L20.7747 35.8824ZM35.7333 29.7995L36.4867 31.6521L37.6989 31.1592L37.7326 29.851L35.7333 29.7995ZM36.2159 11.0829L38.2152 11.1344L38.2513 9.73512L36.9489 9.22207L36.2159 11.0829ZM5.3335 11.0829L4.60045 9.22207L3.3335 9.72117V11.0829H5.3335ZM5.3335 29.7995H3.3335V31.1612L4.60045 31.6603L5.3335 29.7995ZM20.7747 5L21.5077 3.13918L20.7747 2.85041L20.0416 3.13918L20.7747 5ZM139.892 35.8824L139.159 37.7432L139.904 38.0366L140.646 37.735L139.892 35.8824ZM154.851 29.7995L155.604 31.6521L156.817 31.1592L156.85 29.851L154.851 29.7995ZM155.333 11.0829L157.333 11.1344L157.369 9.73512L156.067 9.22207L155.333 11.0829ZM124.451 11.0829L123.718 9.22207L122.451 9.72117V11.0829H124.451ZM124.451 29.7995H122.451V31.1612L123.718 31.6603L124.451 29.7995ZM139.892 5L140.625 3.13918L139.892 2.85041L139.159 3.13918L139.892 5ZM139.892 155L139.159 156.861L139.904 157.154L140.646 156.853L139.892 155ZM154.851 148.917L155.604 150.77L156.817 150.277L156.85 148.969L154.851 148.917ZM155.333 130.201L157.333 130.252L157.369 128.853L156.067 128.34L155.333 130.201ZM124.451 130.201L123.718 128.34L122.451 128.839V130.201H124.451ZM124.451 148.917H122.451V150.279L123.718 150.778L124.451 148.917ZM139.892 124.118L140.625 122.257L139.892 121.968L139.159 122.257L139.892 124.118ZM20.7747 155L20.0416 156.861L20.7865 157.154L21.5281 156.853L20.7747 155ZM35.7333 148.917L36.4867 150.77L37.6989 150.277L37.7326 148.969L35.7333 148.917ZM36.2159 130.201L38.2152 130.252L38.2513 128.853L36.9489 128.34L36.2159 130.201ZM5.3335 130.201L4.60045 128.34L3.3335 128.839V130.201H5.3335ZM5.3335 148.917H3.3335V150.279L4.60045 150.778L5.3335 148.917ZM20.7747 124.118L21.5077 122.257L20.7747 121.968L20.0416 122.257L20.7747 124.118ZM40.6276 17.8897C39.523 17.8897 38.6276 18.7851 38.6276 19.8897C38.6276 20.9943 39.523 21.8897 40.6276 21.8897V17.8897ZM119.764 21.8897C120.868 21.8897 121.764 20.9943 121.764 19.8897C121.764 18.7851 120.868 17.8897 119.764 17.8897V21.8897ZM40.6276 137.559C39.523 137.559 38.6276 138.454 38.6276 139.559C38.6276 140.663 39.523 141.559 40.6276 141.559V137.559ZM119.764 141.559C120.868 141.559 121.764 140.663 121.764 139.559C121.764 138.454 120.868 137.559 119.764 137.559V141.559ZM18.7747 119.43C18.7747 120.535 19.6701 121.43 20.7747 121.43C21.8792 121.43 22.7747 120.535 22.7747 119.43H18.7747ZM22.7747 40.2941C22.7747 39.1896 21.8792 38.2941 20.7747 38.2941C19.6701 38.2941 18.7747 39.1896 18.7747 40.2941H22.7747ZM137.892 119.43C137.892 120.535 138.788 121.43 139.892 121.43C140.997 121.43 141.892 120.535 141.892 119.43H137.892ZM141.892 40.2941C141.892 39.1896 140.997 38.2941 139.892 38.2941C138.788 38.2941 137.892 39.1896 137.892 40.2941H141.892ZM97.4859 97.7558L129.747 126.17L132.391 123.168L100.13 94.7541L97.4859 97.7558ZM28.0006 36.556L60.8725 65.5082L63.5163 62.5065L30.6444 33.5543L28.0006 36.556ZM60.5594 94.4918L28.0006 123.168L30.6444 126.17L63.2032 97.4935L60.5594 94.4918ZM129.747 33.5543L97.1881 62.2308L99.8319 65.2325L132.391 36.556L129.747 33.5543ZM18.7747 16.2299V35.8824H22.7747V16.2299H18.7747ZM21.5281 37.735L36.4867 31.6521L34.9799 27.9468L20.0213 34.0297L21.5281 37.735ZM37.7326 29.851L38.2152 11.1344L34.2165 11.0313L33.734 29.7479L37.7326 29.851ZM35.5834 9.18552L20.1422 14.3326L21.4071 18.1273L36.8483 12.9803L35.5834 9.18552ZM4.70104 12.9803L20.1422 18.1273L21.4071 14.3326L5.96595 9.18552L4.70104 12.9803ZM3.3335 11.0829V29.7995H7.3335V11.0829H3.3335ZM4.60045 31.6603L20.0416 37.7432L21.5077 34.0215L6.06654 27.9387L4.60045 31.6603ZM6.06655 12.9437L21.5077 6.86082L20.0416 3.13918L4.60045 9.22207L6.06655 12.9437ZM20.0416 6.86082L35.4828 12.9437L36.9489 9.22207L21.5077 3.13918L20.0416 6.86082ZM137.892 16.2299V35.8824H141.892V16.2299H137.892ZM140.646 37.735L155.604 31.6521L154.098 27.9468L139.139 34.0297L140.646 37.735ZM156.85 29.851L157.333 11.1344L153.334 11.0313L152.852 29.7479L156.85 29.851ZM154.701 9.18552L139.26 14.3326L140.525 18.1273L155.966 12.9803L154.701 9.18552ZM123.819 12.9803L139.26 18.1273L140.525 14.3326L125.084 9.18552L123.819 12.9803ZM122.451 11.0829V29.7995H126.451V11.0829H122.451ZM123.718 31.6603L139.159 37.7432L140.625 34.0215L125.184 27.9387L123.718 31.6603ZM125.184 12.9437L140.625 6.86082L139.159 3.13918L123.718 9.22207L125.184 12.9437ZM139.159 6.86082L154.6 12.9437L156.067 9.22207L140.625 3.13918L139.159 6.86082ZM137.892 135.348V155H141.892V135.348H137.892ZM140.646 156.853L155.604 150.77L154.098 147.064L139.139 153.147L140.646 156.853ZM156.85 148.969L157.333 130.252L153.334 130.149L152.852 148.866L156.85 148.969ZM154.701 128.303L139.26 133.45L140.525 137.245L155.966 132.098L154.701 128.303ZM123.819 132.098L139.26 137.245L140.525 133.45L125.084 128.303L123.819 132.098ZM122.451 130.201V148.917H126.451V130.201H122.451ZM123.718 150.778L139.159 156.861L140.625 153.139L125.184 147.056L123.718 150.778ZM125.184 132.061L140.625 125.978L139.159 122.257L123.718 128.34L125.184 132.061ZM139.159 125.978L154.6 132.061L156.067 128.34L140.625 122.257L139.159 125.978ZM18.7747 135.348V155H22.7747V135.348H18.7747ZM21.5281 156.853L36.4867 150.77L34.9799 147.064L20.0213 153.147L21.5281 156.853ZM37.7326 148.969L38.2152 130.252L34.2165 130.149L33.734 148.866L37.7326 148.969ZM35.5834 128.303L20.1422 133.45L21.4071 137.245L36.8483 132.098L35.5834 128.303ZM4.70104 132.098L20.1422 137.245L21.4071 133.45L5.96595 128.303L4.70104 132.098ZM3.3335 130.201V148.917H7.3335V130.201H3.3335ZM4.60045 150.778L20.0416 156.861L21.5077 153.139L6.06654 147.056L4.60045 150.778ZM6.06654 132.061L21.5077 125.978L20.0416 122.257L4.60045 128.34L6.06654 132.061ZM20.0416 125.978L35.4828 132.061L36.9489 128.34L21.5077 122.257L20.0416 125.978ZM40.6276 21.8897H119.764V17.8897H40.6276V21.8897ZM40.6276 141.559H119.764V137.559H40.6276V141.559ZM22.7747 119.43V40.2941H18.7747V119.43H22.7747ZM141.892 119.43V40.2941H137.892V119.43H141.892Z" fill="#030303"/>
<path d="M104.47 80C104.47 93.5147 93.5146 104.471 79.9999 104.471C66.4852 104.471 55.5293 93.5147 55.5293 80C55.5293 66.4853 66.4852 55.5294 79.9999 55.5294C93.5146 55.5294 104.47 66.4853 104.47 80Z" stroke="#030303" stroke-width="4"/>
<path d="M93.8321 86V78.5405C94.2046 77.8703 94.9122 77.5351 95.9551 77.5351H97.5992L98.3335 78.0865V78.9135H96.2584C95.8434 78.9135 95.5507 79.0216 95.3805 79.2378V86H93.8321Z" fill="#030303"/>
<path d="M84.5712 83.5027V80.0162C84.5712 78.3622 85.3853 77.5351 87.0134 77.5351H89.0885C90.7167 77.5351 91.5308 78.3622 91.5308 80.0162V82.3513H86.1195V83.6649C86.1195 84.3027 86.4335 84.6216 87.0613 84.6216H91.2115V85.4486L90.4932 86H87.0134C85.3853 86 84.5712 85.1676 84.5712 83.5027ZM86.1195 81.1189H89.9824V79.8541C89.9824 79.227 89.6738 78.9135 89.0566 78.9135H87.0613C86.4335 78.9135 86.1195 79.227 86.1195 79.8541V81.1189Z" fill="#030303"/>
<path d="M75.3771 86V74H76.9255V77.5351H79.8945C81.5226 77.5351 82.3367 78.3622 82.3367 80.0162V83.5027C82.3367 85.1676 81.5226 86 79.8945 86H75.3771ZM76.9255 84.6216H79.8625C80.4798 84.6216 80.7884 84.3027 80.7884 83.6649V79.8541C80.7884 79.227 80.4798 78.9135 79.8625 78.9135H76.9255V84.6216Z" fill="#030303"/>
<path d="M71.2759 76.0108V74.2919H72.936V76.0108H71.2759ZM71.3398 86V77.5351H72.8881V86H71.3398Z" fill="#030303"/>
<path d="M62.3335 86V74.8108H69.6123V76.3027H63.9457V79.9027H69.1335V81.3946H63.9457V86H62.3335Z" fill="#030303"/>
</svg>
