<svg width="160" height="160" viewBox="0 0 160 160" fill="none" xmlns="http://www.w3.org/2000/svg">
<path fill-rule="evenodd" clip-rule="evenodd" d="M71.741 124.953C99.8945 124.953 122.717 102.13 122.717 73.9764C122.717 45.8229 99.8945 23 71.741 23C43.5875 23 20.7646 45.8229 20.7646 73.9764C20.7646 102.13 43.5875 124.953 71.741 124.953ZM73.4468 70.3514L46.5915 45.0448L45.5658 102.041L59.217 102.272L59.7956 70.1204L73.4468 70.3514ZM70.039 77.6032L96.8942 102.91L97.9199 45.9136L84.2687 45.6825L83.6901 77.8343L70.039 77.6032Z" stroke="#030303" stroke-width="4"/>
<path d="M10.7842 31.9377H12.7842V29.9377V5H20.4604V29.9377V31.9377H22.4604H25.6226L16.6223 41.5211L7.62202 31.9377H10.7842ZM138.54 82.9377H140.54V80.9377V56H148.216V80.9377V82.9377H150.216H153.378L144.378 92.5211L135.377 82.9377H138.54ZM66.196 144.495H68.196V142.495V133.295H75.8723V142.495V144.495H77.8723H81.0344L72.0342 154.079L63.0339 144.495H66.196Z" stroke="#030303" stroke-width="4"/>
</svg>
