<svg width="160" height="160" viewBox="0 0 160 160" fill="none" xmlns="http://www.w3.org/2000/svg">
<path d="M17.3951 139.776C16.6177 140.561 16.6234 141.827 17.408 142.605C18.1927 143.382 19.459 143.377 20.2364 142.592L17.3951 139.776ZM128.382 32.6224C128.377 31.5179 127.477 30.6266 126.372 30.6316L108.373 30.7138C107.268 30.7188 106.377 31.6183 106.382 32.7229C106.387 33.8275 107.286 34.7188 108.391 34.7137L124.391 34.6407L124.464 50.6405C124.469 51.7451 125.368 52.6364 126.473 52.6314C127.577 52.6263 128.469 51.7268 128.464 50.6223L128.382 32.6224ZM38.5789 7L38.5789 7V3C36.3698 3 34.5789 4.79085 34.5789 7H38.5789ZM38.5789 7H153V3H38.5789V7ZM153 7V7H157C157 4.79086 155.209 3 153 3V7ZM153 7V121.421H157V7H153ZM153 121.421V121.421V125.421C155.209 125.421 157 123.63 157 121.421H153ZM153 121.421H38.5789V125.421H153V121.421ZM38.5789 121.421H38.5789H34.5789C34.5789 123.63 36.3698 125.421 38.5789 125.421V121.421ZM38.5789 121.421V7H34.5789V121.421H38.5789ZM7 93.8421V89.8421C4.79086 89.8421 3 91.633 3 93.8421H7ZM7 93.8421H66.1579V89.8421H7V93.8421ZM66.1579 93.8421H70.1579C70.1579 91.633 68.367 89.8421 66.1579 89.8421V93.8421ZM66.1579 93.8421V153H70.1579V93.8421H66.1579ZM66.1579 153V157C68.367 157 70.1579 155.209 70.1579 153H66.1579ZM66.1579 153H7V157H66.1579V153ZM7 153H7H3C3 155.209 4.79086 157 7 157V153ZM7 153V93.8421H3V153H7ZM20.2364 142.592L127.802 34.0393L124.961 31.2238L17.3951 139.776L20.2364 142.592Z" fill="#030303"/>
</svg>
